<svg width="20" height="20" viewBox="0 0 20 20" fill="none" xmlns="http://www.w3.org/2000/svg">
<g clip-path="url(#clip0_2_3104)">
<path d="M8.74346 11.9909L10.7118 16.8767C10.8763 17.2865 10.8715 17.7448 10.6984 18.151C10.5253 18.5573 10.198 18.8782 9.78846 19.0434V19.0434C9.37867 19.2079 8.92034 19.203 8.51411 19.0299C8.10788 18.8568 7.78695 18.5296 7.6218 18.12L4.5918 10.6667" stroke="#1C65A8" stroke-width="2" stroke-miterlimit="10"/>
<path d="M15.2576 0.932495L2.50006 5C1.97406 5.15652 1.51942 5.49221 1.215 5.94884C0.910577 6.40547 0.775573 6.95425 0.833398 7.49999C0.775573 8.04574 0.910577 8.59452 1.215 9.05115C1.51942 9.50778 1.97406 9.84347 2.50006 10L15.2576 14.0675" stroke="#1C65A8" stroke-width="2" stroke-miterlimit="10"/>
<path d="M15.8333 14.1667C17.6743 14.1667 19.1667 11.1819 19.1667 7.50001C19.1667 3.81811 17.6743 0.833344 15.8333 0.833344C13.9924 0.833344 12.5 3.81811 12.5 7.50001C12.5 11.1819 13.9924 14.1667 15.8333 14.1667Z" stroke="#1C65A8" stroke-width="2" stroke-miterlimit="10" stroke-linecap="square"/>
<path d="M16.6661 7.50002C16.665 6.88788 16.4386 6.29758 16.03 5.84172C15.6215 5.38585 15.0595 5.09632 14.4511 5.02835C14.2581 5.83797 14.1625 6.66773 14.1661 7.50002C14.1625 8.33231 14.2581 9.16207 14.4511 9.97168C15.0595 9.90372 15.6215 9.61418 16.03 9.15832C16.4386 8.70245 16.665 8.11215 16.6661 7.50002Z" fill="#1C65A8"/>
</g>
<defs>
<clipPath id="clip0_2_3104">
<rect width="20" height="20" fill="white"/>
</clipPath>
</defs>
</svg>
