<svg width="18" height="18" viewBox="0 0 18 18" fill="none" xmlns="http://www.w3.org/2000/svg">
<g clip-path="url(#clip0_2809_5421)">
<path d="M17.25 0.75H8.25V8.25L12 5.25H17.25V0.75Z" stroke="#D73D3D" stroke-width="2" stroke-miterlimit="10" stroke-linecap="square"/>
<path d="M7.5 16.377C7.5 15.924 7.30125 15.4927 6.9465 15.2115C6.40425 14.781 5.46375 14.25 4.125 14.25C2.78625 14.25 1.84575 14.781 1.3035 15.2115C0.94875 15.4927 0.75 15.924 0.75 16.377V17.25H7.5V16.377Z" stroke="#D73D3D" stroke-width="2" stroke-miterlimit="10" stroke-linecap="square"/>
<path d="M4.125 12C5.16053 12 6 11.1605 6 10.125C6 9.08947 5.16053 8.25 4.125 8.25C3.08947 8.25 2.25 9.08947 2.25 10.125C2.25 11.1605 3.08947 12 4.125 12Z" stroke="#D73D3D" stroke-width="2" stroke-miterlimit="10" stroke-linecap="square"/>
<path d="M17.25 16.377C17.25 15.924 17.0512 15.4927 16.6965 15.2115C16.1542 14.781 15.2137 14.25 13.875 14.25C12.5362 14.25 11.5957 14.781 11.0535 15.2115C10.6987 15.4927 10.5 15.924 10.5 16.377V17.25H17.25V16.377Z" stroke="#D73D3D" stroke-width="2" stroke-miterlimit="10" stroke-linecap="square"/>
<path d="M13.875 12C14.9105 12 15.75 11.1605 15.75 10.125C15.75 9.08947 14.9105 8.25 13.875 8.25C12.8395 8.25 12 9.08947 12 10.125C12 11.1605 12.8395 12 13.875 12Z" stroke="#D73D3D" stroke-width="2" stroke-miterlimit="10" stroke-linecap="square"/>
</g>
<defs>
<clipPath id="clip0_2809_5421">
<rect width="18" height="18" fill="white"/>
</clipPath>
</defs>
</svg>
