<svg width="18" height="18" viewBox="0 0 18 18" fill="none" xmlns="http://www.w3.org/2000/svg">
<path d="M15.75 2.25H2.25C1.425 2.25 0.75 2.925 0.75 3.75V12.75C0.75 13.575 1.425 14.25 2.25 14.25H6V15.75H12V14.25H15.75C16.575 14.25 17.2425 13.575 17.2425 12.75L17.25 3.75C17.25 2.925 16.575 2.25 15.75 2.25ZM15.75 12.75H2.25V3.75H15.75V12.75ZM3 10.5V12H4.5C4.5 11.1675 3.8325 10.5 3 10.5ZM3 8.25V9.3225C4.4775 9.3225 5.6775 10.5225 5.6775 12H6.75C6.75 9.93 5.07 8.25 3 8.25ZM3 6V7.0875C5.7075 7.0875 7.9125 9.285 7.9125 12H9C9 8.685 6.3075 6 3 6Z" fill="#F5B85C"/>
</svg>
