<svg width="16" height="17" viewBox="0 0 16 17" fill="none" xmlns="http://www.w3.org/2000/svg">
<path d="M5.5 8.27051C7.15685 8.27051 8.5 6.92736 8.5 5.27051C8.5 3.61365 7.15685 2.27051 5.5 2.27051C3.84315 2.27051 2.5 3.61365 2.5 5.27051C2.5 6.92736 3.84315 8.27051 5.5 8.27051Z" stroke="white" stroke-linecap="round" stroke-linejoin="round"/>
<path d="M12.5 7.27051C13.6046 7.27051 14.5 6.37508 14.5 5.27051C14.5 4.16594 13.6046 3.27051 12.5 3.27051C11.3954 3.27051 10.5 4.16594 10.5 5.27051C10.5 6.37508 11.3954 7.27051 12.5 7.27051Z" stroke="white" stroke-linecap="round" stroke-linejoin="round"/>
<path d="M5.5 10.2705C4.17392 10.2705 2.90215 10.7973 1.96447 11.735C1.02678 12.6727 0.5 13.9444 0.5 15.2705H10.5C10.5 13.9444 9.97322 12.6727 9.03553 11.735C8.09785 10.7973 6.82608 10.2705 5.5 10.2705V10.2705Z" stroke="white" stroke-linecap="round" stroke-linejoin="round"/>
<path d="M10.8418 9.77051C11.3332 9.44354 11.9105 9.26954 12.5008 9.27051C13.2964 9.27051 14.0595 9.58658 14.6221 10.1492C15.1847 10.7118 15.5008 11.4749 15.5008 12.2705V13.2705H12.5008" stroke="white" stroke-linecap="round" stroke-linejoin="round"/>
</svg>
