<svg width="25" height="24" viewBox="0 0 25 24" fill="none" xmlns="http://www.w3.org/2000/svg">
<g clip-path="url(#clip0_2_3097)">
<path d="M15.8333 14.8333V10.6667C15.8333 9.11958 15.2188 7.63585 14.1248 6.54189C13.0308 5.44792 11.5471 4.83334 10 4.83334C8.4529 4.83334 6.96917 5.44792 5.87521 6.54189C4.78125 7.63585 4.16667 9.11958 4.16667 10.6667V14.8333C4.14188 16.8917 3.5664 18.9059 2.5 20.6667H17.5C16.4336 18.9059 15.8581 16.8917 15.8333 14.8333Z" stroke="#1C65A8" stroke-width="2" stroke-linecap="round" stroke-linejoin="round"/>
<path d="M7.64453 22.3333C7.81769 22.8194 8.13699 23.2399 8.55863 23.5373C8.98026 23.8347 9.48358 23.9943 9.99953 23.9943C10.5155 23.9943 11.0188 23.8347 11.4404 23.5373C11.8621 23.2399 12.1814 22.8194 12.3545 22.3333H7.64453Z" fill="#1C65A8"/>
</g>
<circle cx="17.5" cy="7.5" r="7.5" fill="#D73D3D"/>
<path d="M12.69 11C12.6233 11 12.5667 10.9767 12.52 10.93C12.4733 10.8833 12.45 10.8267 12.45 10.76V10.25C12.45 10.07 12.5333 9.91333 12.7 9.78L14.28 8.21C14.9667 7.67 15.4433 7.25 15.71 6.95C15.9833 6.64333 16.12 6.34333 16.12 6.05C16.12 5.73667 16.0333 5.49 15.86 5.31C15.6933 5.13 15.44 5.04 15.1 5.04C14.7667 5.04 14.5033 5.14 14.31 5.34C14.1167 5.53333 13.9967 5.78667 13.95 6.1C13.93 6.18 13.8933 6.24 13.84 6.28C13.7867 6.31333 13.7267 6.33 13.66 6.33H12.77C12.71 6.33 12.66 6.31 12.62 6.27C12.58 6.23 12.56 6.18333 12.56 6.13C12.5733 5.73667 12.68 5.37 12.88 5.03C13.08 4.68333 13.37 4.40667 13.75 4.2C14.13 3.98667 14.5767 3.88 15.09 3.88C15.6233 3.88 16.0733 3.97333 16.44 4.16C16.8133 4.34 17.0933 4.59 17.28 4.91C17.4667 5.23 17.56 5.59333 17.56 6C17.56 6.44667 17.4333 6.85 17.18 7.21C16.9333 7.57 16.5533 7.95667 16.04 8.37L14.62 9.81H17.47C17.5433 9.81 17.6 9.83333 17.64 9.88C17.6867 9.92 17.71 9.97667 17.71 10.05V10.76C17.71 10.8267 17.6867 10.8833 17.64 10.93C17.6 10.9767 17.5433 11 17.47 11H12.69ZM20.7914 11C20.7247 11 20.6681 10.9767 20.6214 10.93C20.5747 10.8833 20.5514 10.8267 20.5514 10.76V5.58L19.0314 6.75C18.9914 6.78333 18.9447 6.8 18.8914 6.8C18.8114 6.8 18.7447 6.76333 18.6914 6.69L18.2714 6.15C18.2381 6.09667 18.2214 6.04667 18.2214 6C18.2214 5.92 18.2581 5.85333 18.3314 5.8L20.5714 4.07C20.6314 4.02333 20.7147 4 20.8214 4H21.7014C21.7747 4 21.8314 4.02333 21.8714 4.07C21.9181 4.11 21.9414 4.16667 21.9414 4.24V10.76C21.9414 10.8267 21.9181 10.8833 21.8714 10.93C21.8314 10.9767 21.7747 11 21.7014 11H20.7914Z" fill="white"/>
<defs>
<clipPath id="clip0_2_3097">
<rect width="20" height="20" fill="white" transform="translate(0 4)"/>
</clipPath>
</defs>
</svg>
