<svg width="20" height="20" viewBox="0 0 20 20" fill="none" xmlns="http://www.w3.org/2000/svg">
<g clip-path="url(#clip0_2_3131)">
<path d="M16.6673 3.33333H15.0007V1.66667H5.00065V3.33333H3.33398V0.833333C3.33398 0.61232 3.42178 0.400358 3.57806 0.244078C3.73434 0.0877974 3.9463 0 4.16732 0L15.834 0C16.055 0 16.267 0.0877974 16.4232 0.244078C16.5795 0.400358 16.6673 0.61232 16.6673 0.833333V3.33333Z" fill="#9EADBA"/>
<path d="M17.5 5H2.5C1.83696 5 1.20107 5.26339 0.732233 5.73223C0.263392 6.20107 0 6.83696 0 7.5L0 15C0 15.221 0.0877974 15.433 0.244078 15.5893C0.400358 15.7455 0.61232 15.8333 0.833333 15.8333H3.33333V19.1667C3.33333 19.3877 3.42113 19.5996 3.57741 19.7559C3.73369 19.9122 3.94565 20 4.16667 20H15.8333C16.0543 20 16.2663 19.9122 16.4226 19.7559C16.5789 19.5996 16.6667 19.3877 16.6667 19.1667V15.8333H19.1667C19.3877 15.8333 19.5996 15.7455 19.7559 15.5893C19.9122 15.433 20 15.221 20 15V7.5C20 6.83696 19.7366 6.20107 19.2678 5.73223C18.7989 5.26339 18.163 5 17.5 5ZM15 18.3333H5V10.8333H15V18.3333Z" fill="#9EADBA"/>
</g>
<defs>
<clipPath id="clip0_2_3131">
<rect width="20" height="20" fill="white"/>
</clipPath>
</defs>
</svg>
